<svg width="319" height="319" xmlns="http://www.w3.org/2000/svg" xmlns:xlink="http://www.w3.org/1999/xlink" xml:space="preserve" overflow="hidden"><g transform="translate(-369 -89)"><path d="M447.421 294.08 439.114 319.002 458.054 337.943 482.976 329.636C489.588 333.334 496.615 336.234 503.91 338.275L515.541 361.536 542.124 361.536 553.754 338.275C560.964 336.293 567.889 333.389 574.356 329.636L599.278 337.943 618.219 319.002 609.911 294.08C613.608 287.468 616.508 280.441 618.551 273.146L641.811 261.516 641.811 234.933 618.219 223.635C616.235 216.425 613.331 209.501 609.579 203.033L617.886 178.111 598.946 159.17 574.024 167.477C567.412 163.779 560.385 160.879 553.09 158.838L541.792 135.521 515.208 135.521 503.578 158.781C496.368 160.763 489.443 163.667 482.976 167.421L458.054 159.114 439.114 178.054 447.421 202.976C443.724 209.588 440.824 216.616 438.781 223.91L415.521 235.208 415.521 261.792 438.781 273.422C440.76 280.651 443.664 287.594 447.421 294.08ZM422.167 239.409 441.685 229.925 444.4 228.596 445.194 225.685C447.102 218.894 449.805 212.353 453.246 206.196L454.645 203.651 453.728 200.893 446.716 179.862 459.852 166.723 480.876 173.734 483.717 174.681 486.309 173.179C492.28 169.714 498.673 167.033 505.329 165.204L508.197 164.424 509.526 161.765 519.322 142.167 537.638 142.167 547.108 161.705 548.438 164.417 551.348 165.211C558.136 167.122 564.675 169.825 570.831 173.266L573.379 174.668 576.137 173.748 597.161 166.736 610.297 179.875 603.286 200.906 602.339 203.747 603.84 206.336C607.308 212.307 609.989 218.703 611.815 225.363L612.616 228.297 615.358 229.609 635.166 239.103 635.166 257.402 615.577 267.198 612.919 268.527 612.138 271.392C610.229 278.182 607.527 284.723 604.086 290.88L602.687 293.426 603.605 296.184 610.616 317.215 597.48 330.353 576.456 323.342 573.615 322.395 571.023 323.897C565.052 327.363 558.658 330.044 552 331.872L549.135 332.653 547.806 335.311 538.01 354.916 519.654 354.916 509.862 335.311 508.533 332.653 505.665 331.872C498.878 329.961 492.34 327.258 486.186 323.817L483.637 322.415 480.879 323.335 459.855 330.347 446.72 317.208 453.734 296.184 454.678 293.343 453.179 290.751C449.711 284.779 447.03 278.384 445.204 271.724L444.42 268.859 441.762 267.53 422.167 257.734Z" fill="#FFFFFF"/><path d="M528.5 288.431C550.522 288.431 568.375 270.579 568.375 248.556 568.375 226.534 550.522 208.681 528.5 208.681 506.478 208.681 488.625 226.534 488.625 248.556 488.694 270.55 506.506 288.362 528.5 288.431ZM528.5 215.304C546.852 215.304 561.729 230.181 561.729 248.533 561.729 266.885 546.852 281.762 528.5 281.762 510.148 281.762 495.271 266.885 495.271 248.533 495.295 230.191 510.158 215.328 528.5 215.304Z" fill="#FFFFFF"/></g></svg>